PathFileType	4	(X/Y/Z)	pose_F01_0-75.trc
DataRate	CameraRate	NumFrames	NumMarkers	Units	OrigDataRate	OrigDataStartFrame	OrigNumFrames
30	30	11	21	m	30	18	75
Frame#	Time	CHip			RHip			RKnee			RAnkle			RBigToe			RSmallToe			RHeel			LHip			LKnee			LAnkle			LBigToe			LSmallToe			LHeel			Neck			Nose			RShoulder			RElbow			RWrist			LShoulder			LElbow			LWrist			
		X1	Y1	Z1	X2	Y2	Z2	X3	Y3	Z3	X4	Y4	Z4	X5	Y5	Z5	X6	Y6	Z6	X7	Y7	Z7	X8	Y8	Z8	X9	Y9	Z9	X10	Y10	Z10	X11	Y11	Z11	X12	Y12	Z12	X13	Y13	Z13	X14	Y14	Z14	X15	Y15	Z15	X16	Y16	Z16	X17	Y17	Z17	X18	Y18	Z18	X19	Y19	Z19	X20	Y20	Z20	X21	Y21	Z21	
18	0.6	-0.24960556028092418	1.8715679655374344	-0.2861254392154783	-0.2567371976568434	1.8662333997259235	-0.2242562628111473																-0.2462728515922127	1.8741300140595178	-0.35535913235182953																-0.2548912840869539	2.028837545802489	-0.2952530629753749	-0.2722992737522944	2.0861681731454857	-0.28274240578708254	-0.26090190612316577	2.021855472905179	-0.20436524598862796	-0.28011913246940373	2.0080805537211748	-0.08220581799165638	-0.2695149441706259	2.0585967862247987	-0.16564417070166856	-0.24382573186745632	2.032903741695086	-0.38422049433722466	-0.23933994374987536	1.9778267587966458	-0.4801935047726526	-0.24023397315288925	1.949855251289193	-0.5829022267281948
19	0.6333333333333333	-0.250738541203083	1.8688428404304307	-0.29760033054283863	-0.2545975082572295	1.8626585397784725	-0.22574311071619585																-0.24442244549764408	1.871962429591134	-0.35736910170536434																-0.25696748890362503	2.024185458451003	-0.2926623637800407	-0.2764946225589152	2.0832334019974925	-0.28676247974393376	-0.263923923116029	2.019546376614272	-0.20482160103314964	-2.6487112553698084	1.9315187552281032	2.856922715191694	-0.27159579648348686	2.052982164871479	-0.16861035998111862	-0.24685708752528826	2.0305851706423894	-0.3852286719187217	-0.2403234654811332	1.9744501760192912	-0.48245813967777323	-0.24339185125351231	1.9491264163500635	-0.5838872488661585
20	0.6666666666666666	-0.24888560064243054	1.8628066413469613	-0.2987438532522065	-0.2538137163948886	1.8563199441580347	-0.22992482678749263																-0.24237277082794487	1.8671950220566742	-0.35873403993835357																-0.2590101037384718	2.017115780991764	-0.28879093862605415	-0.2812576049891048	2.0719435353755307	-0.3104054058787385	-0.26774369309386004	2.0116390643531448	-0.19950127822665215	-0.2888659565297703	1.965452431048893	-0.09263810680575267	-0.28755310980263515	2.0291999272537833	-0.19108918841128786	-0.2501214390055244	2.022165357565172	-0.3849802860286215	-0.24176502926797372	1.962962633139176	-0.4760123140679718	-0.2445933093217273	1.9438589328155034	-0.5779168637890996
21	0.7	-0.25104181018623956	1.850226197196365	-0.30345956767980653	-0.25657050560979416	1.8558126374418946	-0.22648742152255968																-0.2444696941799583	1.8555593678917879	-0.36342631504379164																-0.26404081152070985	2.0010367963381497	-0.2844907829453082	-0.2820391275286229	2.0560800883897694	-0.32930663320278986	-0.2712187183001905	1.9946406418063594	-0.19044903267738625	-0.30628005902690886	1.9306750286358272	-0.1558146056416108	-0.30351042312178345	2.005417689636088	-0.2135680168414571	-0.25339924373322065	2.008177198841725	-0.38360314373654464	-0.24516162585474072	1.952740695744245	-0.4757523126222857	-0.2527427105463232	1.9377819751755654	-0.5939440029718744
22	0.7333333333333333	-0.25350991772310133	1.8511183677323406	-0.2983233666354197	-0.2593272948246997	1.8553053307257545	-0.22305001625762672																-0.24704777377347095	1.8559558444341087	-0.3582202088900352																-0.2658822070178628	1.9865530226372299	-0.2787156782410419	-0.28603431248548933	2.034421855844653	-0.34151041056508336	-0.27263162368263594	1.9800868533011506	-0.19011898026593954	-0.292185576466182	1.913225685792636	-0.16536762657214468	-0.3057454538884439	1.9847834951737786	-0.2343638486187054	-0.2556185540377095	1.9929672733805441	-0.3860476283690793	-0.2483225422985939	1.936863881963085	-0.47402114655700817	-0.2590807422979148	1.9271269998698664	-0.5941870392360349
23	0.7666666666666667	-0.25597802525996305	1.852010538268316	-0.2931871655910329	-0.26208408403960526	1.8547980240096145	-0.21961261099269377																-0.2496258533669836	1.8563523209764294	-0.35301410273627876																-0.2734149179942992	1.9823574094810508	-0.29192674157509757	-0.29269304992371126	2.023664778013414	-0.3503817109798546	-0.2813952632731261	1.9721902114381216	-0.19184016651928998	-0.2995458694140099	1.9025097242196314	-0.21740190872059328	-0.3079804846551043	1.9641493007114696	-0.2551596803959537	-0.2584670786441823	1.9917720863093302	-0.3868494345146581	-0.2510813351883113	1.9283124395052178	-0.48184683675073825	-0.26014863852428954	1.9160833050144996	-0.6130736821377489
24	0.8	-0.2584461327968248	1.8529027088042918	-0.28805096454664614	-0.26484087325451083	1.8542907172934746	-0.21617520572776083																-0.25220393296049626	1.8567487975187502	-0.3478079965825223																-0.27333402774466914	1.985949742187959	-0.29243402860912754	-0.29628352372342837	2.021862282405488	-0.3449766026058577	-0.28177191339298585	1.978201110680558	-0.1876797390430774	-0.3094290184504562	1.9089956988757615	-0.20545159103094196	-0.31380388810082466	1.9594032942813688	-0.24251997794952077	-0.25960082680456226	1.9927286847134977	-0.3904738814149372	-0.24804328661261202	1.9337986855284117	-0.4814182800538732	-0.25208816759783675	1.909492464250449	-0.5952973150971663
25	0.8333333333333334	-0.2609142403336866	1.8537948793402674	-0.2829147635022593	-0.2675976624694164	1.8537834105773345	-0.2127378004628279																-0.2547820125540089	1.8571452740610712	-0.3426018904287659																-2.1600021700964502	1.9108821754340835	1.91681180978781	-0.3010395263563206	2.029434935987006	-0.34602048032340876	-0.28024387218438607	1.9879201188239277	-0.186154114295567	-0.31938689194105613	1.920771368956709	-0.20140633751468828	-0.3122398341503886	1.9857129063762764	-0.2522013807725402	-0.2593329737387739	1.9974050709888551	-0.39085074817440146	-0.24788793082723742	1.9412424272653122	-0.47437495948064984	-0.25194081305323596	1.9138079228738045	-0.5957179243789118
26	0.8666666666666667	-0.2633823478705483	1.8546870498762429	-0.27777856245787247	-0.27035445168432193	1.8532761038611945	-0.20930039519789492																-0.25736009214752154	1.857541750603392	-0.33739578427500944																-0.2726423507903707	2.003363222653871	-0.2879809492365936	-0.3015588848014175	2.0462766399246317	-0.3449307434183413	-0.28018842810844913	1.9982506439776782	-0.18894639148380662	-0.3286464098415787	1.9379150925950348	-0.19701323354395933	-0.3187584034989116	1.9912278176728517	-0.2505030557359432	-0.26000994784422504	2.01073180080425	-0.3884167099484538	-0.2477409717027387	1.9513657726107119	-0.4757596318956685	-0.24874619406325119	1.9212971632278348	-0.5958885694953026
27	0.9	-0.2658504554074101	1.8555792204122186	-0.2726423614134857	-0.2731112408992275	1.8527687971450544	-0.20586298993296198																-0.2599381717410342	1.8579382271457128	-0.332189678121253																-0.27005007845710677	2.0117395749398272	-0.282376895162629	-0.3026139938496826	2.053521451414425	-0.32076561350894633	-0.2787888794206302	2.006923821610854	-0.1873937038265501	-0.33408073099739527	1.9468477456497297	-0.18741431739036832	-0.3187470129484247	2.0187315914281077	-0.24457484826399895	-0.2635847278702259	2.0168135172673822	-0.3849674193159354	-0.2486261063939783	1.9601981263404422	-0.47187405982750263	-0.2524860758917196	1.9279040479567078	-0.5917868544627225
28	0.9333333333333333	-0.26673145339743687	1.8608444756516724	-0.2652293302607328	-0.27527690529340854	1.856499087190967	-0.19891839911150527																-0.26073393793017907	1.8637573357202215	-0.3317891089496213																-0.27245513012848493	2.019140200252827	-0.2773391765478838	-0.30083518807196985	2.0631972344971192	-0.31194151092109124	-0.28232052343871433	2.017000948433183	-0.18675342958918287	-0.31773572527424176	1.9751762107002506	-0.13856112955017455	-0.30523022847477993	2.0304341895437683	-0.19849201679901315	-0.2643224008756953	2.023293724644221	-0.38105969985350413	-0.25230245957251834	1.9675990024459569	-0.4682457243373374	-0.2534470276406827	1.9395506156636317	-0.5879670717215917
